<svg width="24" height="25" viewBox="0 0 24 25" fill="none" xmlns="http://www.w3.org/2000/svg">
<path d="M14.5132 21.2071L14.3408 20.4772L14.5132 21.2071ZM9.48673 21.2071L9.65916 20.4772L9.48673 21.2071ZM14.8284 5.51423L14.2962 6.04267L14.8284 5.51423ZM20.4678 12.2582C20.7596 12.5521 21.2345 12.5538 21.5284 12.2619C21.8224 11.9701 21.8241 11.4952 21.5322 11.2013L20.4678 12.2582ZM9.17157 5.51423L9.70378 6.04267L9.17157 5.51423ZM2.46779 11.2013C2.17594 11.4952 2.17762 11.9701 2.47155 12.2619C2.76548 12.5538 3.24035 12.5521 3.53221 12.2582L2.46779 11.2013ZM9.71842 18.8203L8.9813 18.6819L8.9813 18.6819L9.71842 18.8203ZM9.73776 18.7173L10.4749 18.8556L10.4749 18.8556L9.73776 18.7173ZM14.2622 18.7173L13.5251 18.8556V18.8556L14.2622 18.7173ZM14.2816 18.8203L15.0187 18.6819V18.6819L14.2816 18.8203ZM13.9918 21.0519L14.669 21.3742L13.9918 21.0519ZM13.1978 20.975C13.0198 21.349 13.1787 21.7965 13.5527 21.9745C13.9267 22.1525 14.3742 21.9936 14.5522 21.6196L13.1978 20.975ZM10.0082 21.0519L9.331 21.3742L9.331 21.3742L10.0082 21.0519ZM9.44778 21.6196C9.62577 21.9936 10.0733 22.1525 10.4473 21.9745C10.8213 21.7965 10.9802 21.349 10.8022 20.975L9.44778 21.6196ZM11.3611 16.9426L11.1605 16.2199H11.1605L11.3611 16.9426ZM12.6389 16.9426L12.8395 16.2199H12.8395L12.6389 16.9426ZM18.54 10.219V15.1374H20.04V10.219H18.54ZM5.45999 15.1374V10.219H3.95999V15.1374H5.45999ZM14.3408 20.4772C12.8011 20.8409 11.1988 20.8409 9.65916 20.4772L9.3143 21.937C11.0808 22.3543 12.9192 22.3543 14.6857 21.937L14.3408 20.4772ZM9.65916 20.4772C7.2026 19.8969 5.45999 17.6877 5.45999 15.1374H3.95999C3.95999 18.3765 6.17421 21.1952 9.3143 21.937L9.65916 20.4772ZM14.6857 21.937C17.8258 21.1952 20.04 18.3765 20.04 15.1374H18.54C18.54 17.6877 16.7974 19.8969 14.3408 20.4772L14.6857 21.937ZM15.3606 4.98578C14.7089 4.32945 14.1681 3.78246 13.6818 3.40885C13.1785 3.02211 12.6458 2.75 12 2.75V4.25C12.1827 4.25 12.3974 4.31359 12.7679 4.59826C13.1555 4.89606 13.6146 5.35618 14.2962 6.04267L15.3606 4.98578ZM9.70378 6.04267C10.3854 5.35618 10.8445 4.89606 11.2321 4.59826C11.6026 4.31359 11.8173 4.25 12 4.25V2.75C11.3542 2.75 10.8215 3.02211 10.3182 3.40885C9.83194 3.78246 9.29106 4.32945 8.63937 4.98578L9.70378 6.04267ZM10.4555 18.9587L10.4749 18.8556L9.00064 18.5789L8.9813 18.6819L10.4555 18.9587ZM13.5251 18.8556L13.5445 18.9587L15.0187 18.6819L14.9994 18.5789L13.5251 18.8556ZM13.3146 20.7296L13.1978 20.975L14.5522 21.6196L14.669 21.3742L13.3146 20.7296ZM9.331 21.3742L9.44778 21.6196L10.8022 20.975L10.6854 20.7296L9.331 21.3742ZM13.5445 18.9587C13.6571 19.5588 13.5764 20.1793 13.3146 20.7296L14.669 21.3742C15.0675 20.5369 15.1899 19.5937 15.0187 18.6819L13.5445 18.9587ZM8.9813 18.6819C8.81015 19.5937 8.93254 20.5369 9.331 21.3742L10.6854 20.7296C10.4236 20.1793 10.3429 19.5588 10.4556 18.9587L8.9813 18.6819ZM11.5616 17.6652C11.8485 17.5856 12.1515 17.5856 12.4384 17.6652L12.8395 16.2199C12.2901 16.0674 11.7099 16.0674 11.1605 16.2199L11.5616 17.6652ZM14.9994 18.5789C14.7865 17.4449 13.9504 16.5281 12.8395 16.2199L12.4384 17.6652C12.9935 17.8193 13.417 18.2794 13.5251 18.8556L14.9994 18.5789ZM10.4749 18.8556C10.583 18.2794 11.0065 17.8193 11.5616 17.6652L11.1605 16.2199C10.0496 16.5281 9.21349 17.4449 9.00064 18.5789L10.4749 18.8556ZM8.63937 4.98578L4.17779 9.4791L5.2422 10.536L9.70378 6.04267L8.63937 4.98578ZM4.17779 9.4791L2.46779 11.2013L3.53221 12.2582L5.2422 10.536L4.17779 9.4791ZM5.45999 10.219V10.0075H3.95999V10.219H5.45999ZM14.2962 6.04267L18.7578 10.536L19.8222 9.47908L15.3606 4.98578L14.2962 6.04267ZM18.7578 10.536L20.4678 12.2582L21.5322 11.2013L19.8222 9.47908L18.7578 10.536ZM20.04 10.219V10.0075H18.54V10.219H20.04Z" fill="#6B7280"/>
</svg>
