<svg xmlns="http://www.w3.org/2000/svg" xmlns:xlink="http://www.w3.org/1999/xlink" width="500" zoomAndPan="magnify" viewBox="0 0 375 374.999991" height="500" preserveAspectRatio="xMidYMid meet" version="1.0"><defs><g/><clipPath id="25d4a8d12d"><path d="M 30.144531 25.882812 L 344.855469 25.882812 L 344.855469 340.589844 L 30.144531 340.589844 Z M 30.144531 25.882812 " clip-rule="nonzero"/></clipPath><clipPath id="9610629e3e"><path d="M 253.964844 177.742188 L 337.5 177.742188 L 337.5 290.242188 L 253.964844 290.242188 Z M 253.964844 177.742188 " clip-rule="nonzero"/></clipPath></defs><rect x="-37.5" width="450" fill="#ffffff" y="-37.499999" height="449.999989" fill-opacity="1"/><rect x="-37.5" width="450" fill="#ffffff" y="-37.499999" height="449.999989" fill-opacity="1"/><g clip-path="url(#25d4a8d12d)"><path fill="#16a34a" d="M 308.542969 98.507812 C 308.542969 98.507812 98.425781 98.507812 62.195312 98.507812 C 51.570312 98.507812 42.128906 96.375 42.128906 86.402344 L 308.542969 74.296875 L 308.542969 50.089844 C 308.542969 30.046875 292.273438 25.882812 272.230469 25.882812 L 54.609375 62.195312 C 35.21875 66.503906 30.144531 74.722656 30.144531 86.402344 L 30.144531 304.277344 C 30.144531 324.324219 46.414062 340.589844 66.457031 340.589844 L 308.542969 340.589844 C 328.585938 340.589844 344.855469 324.324219 344.855469 304.277344 L 344.855469 134.820312 C 344.855469 114.773438 328.585938 98.507812 308.542969 98.507812 Z M 296.4375 243.757812 C 283.074219 243.757812 272.230469 232.910156 272.230469 219.546875 C 272.230469 206.1875 283.074219 195.339844 296.4375 195.339844 C 309.800781 195.339844 320.644531 206.1875 320.644531 219.546875 C 320.644531 232.910156 309.800781 243.757812 296.4375 243.757812 Z M 296.4375 243.757812 " fill-opacity="1" fill-rule="nonzero"/></g><g fill="#ffffff" fill-opacity="1"><g transform="translate(127.858136, 291.54454)"><g><path d="M 64.609375 -149.09375 C 72.535156 -149.09375 80.285156 -147.9375 87.859375 -145.625 C 95.429688 -143.320312 101.050781 -141.046875 104.71875 -138.796875 L 110.046875 -135.25 L 96.546875 -108.625 C 95.484375 -109.332031 94.003906 -110.25 92.109375 -111.375 C 90.222656 -112.5 86.675781 -114.003906 81.46875 -115.890625 C 76.257812 -117.785156 71.40625 -118.734375 66.90625 -118.734375 C 61.34375 -118.734375 57.050781 -117.550781 54.03125 -115.1875 C 51.019531 -112.820312 49.515625 -109.628906 49.515625 -105.609375 C 49.515625 -103.585938 50.222656 -101.71875 51.640625 -100 C 53.066406 -98.289062 55.492188 -96.457031 58.921875 -94.5 C 62.359375 -92.550781 65.375 -90.984375 67.96875 -89.796875 C 70.570312 -88.617188 74.597656 -86.847656 80.046875 -84.484375 C 89.515625 -80.460938 97.585938 -74.988281 104.265625 -68.0625 C 110.953125 -61.144531 114.296875 -53.304688 114.296875 -44.546875 C 114.296875 -36.148438 112.785156 -28.816406 109.765625 -22.546875 C 106.753906 -16.273438 102.613281 -11.363281 97.34375 -7.8125 C 92.082031 -4.257812 86.253906 -1.628906 79.859375 0.078125 C 73.472656 1.796875 66.554688 2.65625 59.109375 2.65625 C 52.710938 2.65625 46.4375 2.003906 40.28125 0.703125 C 34.132812 -0.597656 28.988281 -2.222656 24.84375 -4.171875 C 20.707031 -6.117188 16.984375 -8.039062 13.671875 -9.9375 C 10.359375 -11.832031 7.929688 -13.429688 6.390625 -14.734375 L 4.078125 -16.6875 L 20.765625 -44.71875 C 22.179688 -43.539062 24.128906 -42.035156 26.609375 -40.203125 C 29.097656 -38.367188 33.507812 -35.910156 39.84375 -32.828125 C 46.175781 -29.753906 51.769531 -28.21875 56.625 -28.21875 C 70.695312 -28.21875 77.734375 -33.007812 77.734375 -42.59375 C 77.734375 -44.601562 77.226562 -46.46875 76.21875 -48.1875 C 75.21875 -49.90625 73.445312 -51.617188 70.90625 -53.328125 C 68.363281 -55.046875 66.113281 -56.40625 64.15625 -57.40625 C 62.207031 -58.414062 59.015625 -59.957031 54.578125 -62.03125 C 50.140625 -64.101562 46.851562 -65.671875 44.71875 -66.734375 C 35.851562 -71.109375 28.992188 -76.578125 24.140625 -83.140625 C 19.285156 -89.710938 16.859375 -96.785156 16.859375 -104.359375 C 16.859375 -117.492188 21.707031 -128.234375 31.40625 -136.578125 C 41.113281 -144.921875 52.179688 -149.09375 64.609375 -149.09375 Z M 64.609375 -149.09375 "/></g></g></g><g clip-path="url(#9610629e3e)"><path fill="#16a34a" d="M 253.964844 177.742188 L 337.5 177.742188 L 337.5 290.324219 L 253.964844 290.324219 Z M 253.964844 177.742188 " fill-opacity="1" fill-rule="nonzero"/></g></svg>