<svg width="16" height="16" viewBox="0 0 16 16" fill="none" xmlns="http://www.w3.org/2000/svg">
<path d="M2.21049 9.18737L2.94067 9.01609L2.21049 9.18737ZM2.21049 5.54933L2.94067 5.72061L2.21049 5.54933ZM12.5262 5.54934L13.2564 5.37806L12.5262 5.54934ZM12.5262 9.18737L13.2564 9.35864L12.5262 9.18737ZM9.18737 12.5262L9.01609 11.796L9.18737 12.5262ZM5.54934 12.5262L5.37806 13.2564L5.54934 12.5262ZM5.54933 2.21049L5.37806 1.4803L5.54933 2.21049ZM9.18737 2.21048L9.35864 1.4803L9.18737 2.21048ZM13.4697 14.5303C13.7626 14.8232 14.2374 14.8232 14.5303 14.5303C14.8232 14.2374 14.8232 13.7626 14.5303 13.4697L13.4697 14.5303ZM2.94067 9.01609C2.68644 7.93231 2.68644 6.8044 2.94067 5.72061L1.4803 5.37805C1.17323 6.68715 1.17323 8.04955 1.4803 9.35865L2.94067 9.01609ZM11.796 5.72061C12.0503 6.8044 12.0503 7.93231 11.796 9.01609L13.2564 9.35864C13.5635 8.04955 13.5635 6.68715 13.2564 5.37806L11.796 5.72061ZM9.01609 11.796C7.93231 12.0503 6.8044 12.0503 5.72061 11.796L5.37806 13.2564C6.68715 13.5635 8.04955 13.5635 9.35864 13.2564L9.01609 11.796ZM5.72061 2.94067C6.8044 2.68644 7.93231 2.68644 9.01609 2.94067L9.35864 1.4803C8.04955 1.17323 6.68715 1.17323 5.37806 1.4803L5.72061 2.94067ZM5.72061 11.796C4.34124 11.4725 3.26422 10.3955 2.94067 9.01609L1.4803 9.35865C1.93396 11.2927 3.44405 12.8027 5.37806 13.2564L5.72061 11.796ZM9.35864 13.2564C11.2927 12.8027 12.8027 11.2927 13.2564 9.35864L11.796 9.01609C11.4725 10.3955 10.3955 11.4725 9.01609 11.796L9.35864 13.2564ZM9.01609 2.94067C10.3955 3.26422 11.4725 4.34124 11.796 5.72061L13.2564 5.37806C12.8027 3.44405 11.2927 1.93396 9.35864 1.4803L9.01609 2.94067ZM5.37806 1.4803C3.44405 1.93396 1.93396 3.44405 1.4803 5.37805L2.94067 5.72061C3.26422 4.34124 4.34124 3.26422 5.72061 2.94067L5.37806 1.4803ZM11.0264 12.0871L13.4697 14.5303L14.5303 13.4697L12.0871 11.0264L11.0264 12.0871Z" fill="#6B7280"/>
</svg>
