<svg width="24" height="25" viewBox="0 0 24 25" fill="none" xmlns="http://www.w3.org/2000/svg">
<path d="M16.1672 19.8995L15.7926 19.2498H15.7926L16.1672 19.8995ZM13.0812 21.386L12.9249 20.6525L13.0812 21.386ZM7.83278 19.8996L7.45814 20.5493L7.45814 20.5493L7.83278 19.8996ZM10.9188 21.386L11.0751 20.6525L10.9188 21.386ZM20.2855 15.7483L19.5644 15.542L20.2855 15.7483ZM16.3328 19.8041L16.7074 20.4538H16.7074L16.3328 19.8041ZM18.9894 18.0199L18.4462 17.5027L18.9894 18.0199ZM16.3328 5.19591L16.7074 4.54619L16.7074 4.54619L16.3328 5.19591ZM18.9894 6.9801L18.4462 7.49725L18.9894 6.9801ZM20.2855 9.25174L19.5644 9.45796L20.2855 9.25174ZM7.83278 5.10045L7.45814 4.45072L7.45814 4.45072L7.83278 5.10045ZM10.9188 3.61398L11.0751 4.34751L10.9188 3.61398ZM16.1672 5.10045L15.7926 5.75018L15.7926 5.75018L16.1672 5.10045ZM13.0812 3.61398L12.9249 4.34751L13.0812 3.61398ZM3.5 12.5H2.75H3.5ZM3.71455 9.25174L4.43564 9.45796L3.71455 9.25174ZM7.66722 5.19591L8.04186 5.84564L7.66722 5.19591ZM5.0106 6.9801L4.46741 6.46294L5.0106 6.9801ZM3.71455 15.7483L2.99346 15.9545L3.71455 15.7483ZM7.66722 19.8041L8.04186 19.1544L8.04186 19.1544L7.66722 19.8041ZM5.0106 18.0199L4.46741 18.5371L5.0106 18.0199ZM8.04186 5.84564L8.20742 5.75018L7.45814 4.45072L7.29258 4.54619L8.04186 5.84564ZM15.7926 5.75018L15.9581 5.84564L16.7074 4.54619L16.5419 4.45072L15.7926 5.75018ZM15.9581 19.1544L15.7926 19.2498L16.5419 20.5493L16.7074 20.4538L15.9581 19.1544ZM8.20743 19.2498L8.04186 19.1544L7.29258 20.4538L7.45814 20.5493L8.20743 19.2498ZM15.7926 19.2498C14.2287 20.1516 13.5875 20.5113 12.9249 20.6525L13.2375 22.1196C14.1867 21.9173 15.0656 21.4005 16.5419 20.5493L15.7926 19.2498ZM7.45814 20.5493C8.9344 21.4005 9.81328 21.9173 10.7625 22.1196L11.0751 20.6525C10.4125 20.5113 9.77132 20.1516 8.20742 19.2498L7.45814 20.5493ZM12.9249 20.6525C12.3148 20.7825 11.6852 20.7825 11.0751 20.6525L10.7625 22.1196C11.5787 22.2935 12.4213 22.2935 13.2375 22.1196L12.9249 20.6525ZM19.75 12.5C19.75 14.2102 19.7431 14.917 19.5644 15.542L21.0065 15.9545C21.2569 15.0791 21.25 14.1205 21.25 12.5H19.75ZM16.7074 20.4538C18.0839 19.6601 18.9075 19.1936 19.5326 18.5371L18.4462 17.5027C18.0059 17.9652 17.4136 18.3151 15.9581 19.1544L16.7074 20.4538ZM19.5644 15.542C19.353 16.2812 18.9685 16.9542 18.4462 17.5027L19.5326 18.5371C20.2237 17.8112 20.7292 16.9242 21.0065 15.9545L19.5644 15.542ZM15.9581 5.84564C17.4136 6.68489 18.0059 7.03478 18.4462 7.49725L19.5326 6.46294C18.9075 5.80643 18.0839 5.33986 16.7074 4.54619L15.9581 5.84564ZM21.25 12.5C21.25 10.8795 21.2569 9.92087 21.0065 9.04552L19.5644 9.45796C19.7431 10.083 19.75 10.7898 19.75 12.5H21.25ZM18.4462 7.49725C18.9685 8.0458 19.353 8.71879 19.5644 9.45796L21.0065 9.04552C20.7292 8.07581 20.2237 7.18883 19.5326 6.46294L18.4462 7.49725ZM8.20742 5.75018C9.77132 4.84841 10.4125 4.4887 11.0751 4.34751L10.7625 2.88045C9.81328 3.08271 8.93439 3.5995 7.45814 4.45072L8.20742 5.75018ZM16.5419 4.45072C15.0656 3.5995 14.1867 3.08271 13.2375 2.88045L12.9249 4.34751C13.5875 4.4887 14.2287 4.84841 15.7926 5.75018L16.5419 4.45072ZM11.0751 4.34751C11.6852 4.2175 12.3148 4.2175 12.9249 4.34751L13.2375 2.88045C12.4213 2.70652 11.5787 2.70652 10.7625 2.88045L11.0751 4.34751ZM4.25 12.5C4.25 10.7898 4.25688 10.083 4.43564 9.45796L2.99346 9.04552C2.74312 9.92087 2.75 10.8795 2.75 12.5H4.25ZM7.29258 4.54619C5.91614 5.33986 5.09246 5.80643 4.46741 6.46294L5.55378 7.49725C5.99409 7.03478 6.58638 6.68489 8.04186 5.84564L7.29258 4.54619ZM4.43564 9.45796C4.64703 8.71879 5.03152 8.0458 5.55378 7.49725L4.46741 6.46294C3.77631 7.18883 3.27078 8.07581 2.99346 9.04552L4.43564 9.45796ZM2.75 12.5C2.75 14.1205 2.74312 15.0791 2.99346 15.9545L4.43564 15.542C4.25688 14.917 4.25 14.2102 4.25 12.5H2.75ZM8.04186 19.1544C6.58638 18.3151 5.99409 17.9652 5.55378 17.5027L4.46741 18.5371C5.09247 19.1936 5.91614 19.6601 7.29258 20.4538L8.04186 19.1544ZM2.99346 15.9545C3.27078 16.9242 3.77631 17.8112 4.46741 18.5371L5.55378 17.5027C5.03152 16.9542 4.64703 16.2812 4.43564 15.542L2.99346 15.9545ZM12 14.4729C10.9646 14.4729 10.0938 13.6072 10.0938 12.5H8.59375C8.59375 14.4004 10.1014 15.9729 12 15.9729V14.4729ZM13.9062 12.5C13.9062 13.6072 13.0354 14.4729 12 14.4729V15.9729C13.8986 15.9729 15.4062 14.4004 15.4062 12.5H13.9062ZM12 10.5271C13.0354 10.5271 13.9062 11.3928 13.9062 12.5H15.4062C15.4062 10.5996 13.8986 9.0271 12 9.0271V10.5271ZM12 9.0271C10.1014 9.0271 8.59375 10.5996 8.59375 12.5H10.0938C10.0938 11.3928 10.9646 10.5271 12 10.5271V9.0271Z" fill="#6B7280"/>
</svg>
