<svg width="25" height="25" viewBox="0 0 25 25" fill="none" xmlns="http://www.w3.org/2000/svg">
<path d="M3.85288 9.45043C4.50437 6.67301 6.67301 4.50437 9.45043 3.85288C11.4563 3.38237 13.5437 3.38237 15.5496 3.85288C18.327 4.50437 20.4956 6.67301 21.1471 9.45044C21.6176 11.4563 21.6176 13.5437 21.1471 15.5496C20.4956 18.327 18.327 20.4956 15.5496 21.1471C13.5437 21.6176 11.4563 21.6176 9.45044 21.1471C6.67301 20.4956 4.50437 18.327 3.85288 15.5496C3.38237 13.5437 3.38237 11.4563 3.85288 9.45043Z" fill="#A5DD9B" stroke="#214F3B" stroke-width="1.5"/>
<path d="M9.5 9.5H13.5M9.5 15.5H12.5M9.5 12.5H15.5" stroke="#214F3B" stroke-width="1.5" stroke-linecap="round"/>
</svg>
