<svg width="239" height="207" viewBox="0 0 239 207" fill="none" xmlns="http://www.w3.org/2000/svg">
<g filter="url(#filter0_d_494_187)">
<path d="M119.553 41.8947C148.546 41.8947 172.076 65.3558 172.076 94.2632C172.076 101.071 170.711 107.46 168.295 113.43L198.969 144.013C214.831 130.816 227.332 113.744 235 94.2632C216.827 48.2837 171.971 15.7105 119.447 15.7105C104.741 15.7105 90.6644 18.3289 77.6385 23.0421L100.329 45.6653C106.317 43.2563 112.724 41.8947 119.553 41.8947ZM14.5048 13.3016L38.4557 37.1816L43.2879 41.9995C25.8499 55.5105 12.1937 73.5253 4 94.2632C22.1733 140.243 67.0287 172.816 119.553 172.816C135.835 172.816 151.382 169.674 165.563 164.018L169.975 168.417L200.754 199L214.096 185.698L27.8458 0L14.5048 13.3016ZM72.5962 71.2211L88.8786 87.4553C88.3533 89.6547 88.0382 91.9589 88.0382 94.2632C88.0382 111.649 102.115 125.684 119.553 125.684C121.864 125.684 124.175 125.37 126.381 124.846L142.663 141.081C135.625 144.537 127.851 146.632 119.553 146.632C90.5593 146.632 67.0287 123.171 67.0287 94.2632C67.0287 85.9889 69.1296 78.2384 72.5962 71.2211ZM117.872 63.0516L150.962 96.0437L151.172 94.3679C151.172 76.9816 137.096 62.9468 119.658 62.9468L117.872 63.0516Z" fill="#6B7280"/>
</g>
<defs>
<filter id="filter0_d_494_187" x="0" y="0" width="239" height="207" filterUnits="userSpaceOnUse" color-interpolation-filters="sRGB">
<feFlood flood-opacity="0" result="BackgroundImageFix"/>
<feColorMatrix in="SourceAlpha" type="matrix" values="0 0 0 0 0 0 0 0 0 0 0 0 0 0 0 0 0 0 127 0" result="hardAlpha"/>
<feOffset dy="4"/>
<feGaussianBlur stdDeviation="2"/>
<feComposite in2="hardAlpha" operator="out"/>
<feColorMatrix type="matrix" values="0 0 0 0 0 0 0 0 0 0 0 0 0 0 0 0 0 0 0.25 0"/>
<feBlend mode="normal" in2="BackgroundImageFix" result="effect1_dropShadow_494_187"/>
<feBlend mode="normal" in="SourceGraphic" in2="effect1_dropShadow_494_187" result="shape"/>
</filter>
</defs>
</svg>
