<svg width="294" height="200" viewBox="0 0 294 200" fill="none" xmlns="http://www.w3.org/2000/svg">
<path d="M147 0C80.1818 0 23.1191 41.4667 0 100C23.1191 158.533 80.1818 200 147 200C213.818 200 270.881 158.533 294 100C270.881 41.4667 213.818 0 147 0ZM147 166.667C110.116 166.667 80.1818 136.8 80.1818 100C80.1818 63.2 110.116 33.3333 147 33.3333C183.884 33.3333 213.818 63.2 213.818 100C213.818 136.8 183.884 166.667 147 166.667ZM147 60C124.816 60 106.909 77.8667 106.909 100C106.909 122.133 124.816 140 147 140C169.184 140 187.091 122.133 187.091 100C187.091 77.8667 169.184 60 147 60Z" fill="#6B7280"/>
</svg>
